<mxfile host="app.diagrams.net" modified="2024-03-12T13:43:29.365Z" agent="Mozilla/5.0 (Windows NT 10.0; Win64; x64) AppleWebKit/537.36 (KHTML, like Gecko) Chrome/122.0.0.0 Safari/537.36" etag="WGC-nLJtXyiiZX-dXeGe" version="24.0.5" type="device">
  <diagram name="Página-1" id="Hw4kW6DGomJSHYVDt6B9">
    <mxGraphModel dx="1434" dy="772" grid="1" gridSize="10" guides="1" tooltips="1" connect="1" arrows="1" fold="1" page="1" pageScale="1" pageWidth="827" pageHeight="1169" math="0" shadow="0">
      <root>
        <mxCell id="0" />
        <mxCell id="1" parent="0" />
        <mxCell id="GaZngFwSLm-xiDJxTFGF-3" style="edgeStyle=orthogonalEdgeStyle;rounded=0;orthogonalLoop=1;jettySize=auto;html=1;exitX=1;exitY=1;exitDx=0;exitDy=0;" edge="1" parent="1">
          <mxGeometry relative="1" as="geometry">
            <mxPoint x="640" y="810" as="targetPoint" />
            <mxPoint x="669" y="859" as="sourcePoint" />
          </mxGeometry>
        </mxCell>
        <mxCell id="GaZngFwSLm-xiDJxTFGF-2" value="" style="rounded=0;whiteSpace=wrap;html=1;" vertex="1" parent="1">
          <mxGeometry x="29" y="325" width="770" height="395" as="geometry" />
        </mxCell>
        <mxCell id="GaZngFwSLm-xiDJxTFGF-5" value="Irformações" style="rounded=1;whiteSpace=wrap;html=1;" vertex="1" parent="1">
          <mxGeometry x="55" y="510" width="120" height="60" as="geometry" />
        </mxCell>
        <mxCell id="GaZngFwSLm-xiDJxTFGF-6" value="Hobbies" style="rounded=1;whiteSpace=wrap;html=1;" vertex="1" parent="1">
          <mxGeometry x="55" y="585" width="120" height="60" as="geometry" />
        </mxCell>
        <mxCell id="GaZngFwSLm-xiDJxTFGF-7" value="Foto" style="ellipse;whiteSpace=wrap;html=1;aspect=fixed;" vertex="1" parent="1">
          <mxGeometry x="50" y="330" width="160" height="160" as="geometry" />
        </mxCell>
        <mxCell id="GaZngFwSLm-xiDJxTFGF-9" value="Currículo" style="rounded=0;whiteSpace=wrap;html=1;" vertex="1" parent="1">
          <mxGeometry x="270" y="330" width="520" height="120" as="geometry" />
        </mxCell>
        <mxCell id="GaZngFwSLm-xiDJxTFGF-10" value="Pontos Fortes e a melhorar" style="rounded=0;whiteSpace=wrap;html=1;" vertex="1" parent="1">
          <mxGeometry x="270" y="480" width="520" height="100" as="geometry" />
        </mxCell>
        <mxCell id="GaZngFwSLm-xiDJxTFGF-11" value="Redes sociais" style="rounded=0;whiteSpace=wrap;html=1;" vertex="1" parent="1">
          <mxGeometry x="50" y="670" width="740" height="40" as="geometry" />
        </mxCell>
        <mxCell id="GaZngFwSLm-xiDJxTFGF-12" value="Formulário" style="rounded=0;whiteSpace=wrap;html=1;" vertex="1" parent="1">
          <mxGeometry x="270" y="600" width="520" height="60" as="geometry" />
        </mxCell>
      </root>
    </mxGraphModel>
  </diagram>
</mxfile>
